<mxfile host="Electron" modified="2024-08-09T04:46:44.075Z" agent="Mozilla/5.0 (Windows NT 10.0; Win64; x64) AppleWebKit/537.36 (KHTML, like Gecko) draw.io/24.6.1 Chrome/124.0.6367.207 Electron/30.0.6 Safari/537.36" etag="leG24IWzw7Y4h19dImBS" version="24.6.1" type="device">
  <diagram id="pTLGZq7qyp4XZ5Yoambq" name="Страница — 2">
    <mxGraphModel dx="1290" dy="1798" grid="1" gridSize="10" guides="1" tooltips="1" connect="1" arrows="1" fold="1" page="1" pageScale="1" pageWidth="827" pageHeight="1169" math="0" shadow="0">
      <root>
        <mxCell id="0" />
        <mxCell id="1" parent="0" />
        <mxCell id="7THwGTHfOE4JQq3ZWJoE-19" style="edgeStyle=orthogonalEdgeStyle;rounded=0;orthogonalLoop=1;jettySize=auto;html=1;exitX=1;exitY=0.5;exitDx=0;exitDy=0;" edge="1" parent="1" source="7THwGTHfOE4JQq3ZWJoE-1" target="7THwGTHfOE4JQq3ZWJoE-3">
          <mxGeometry relative="1" as="geometry" />
        </mxCell>
        <mxCell id="7THwGTHfOE4JQq3ZWJoE-1" value="Genres" style="html=1;whiteSpace=wrap;" vertex="1" parent="1">
          <mxGeometry x="491" y="-110" width="110" height="50" as="geometry" />
        </mxCell>
        <mxCell id="7THwGTHfOE4JQq3ZWJoE-2" value="BookDownloads" style="html=1;whiteSpace=wrap;" vertex="1" parent="1">
          <mxGeometry x="210" y="130" width="110" height="50" as="geometry" />
        </mxCell>
        <mxCell id="7THwGTHfOE4JQq3ZWJoE-13" style="edgeStyle=orthogonalEdgeStyle;rounded=0;orthogonalLoop=1;jettySize=auto;html=1;exitX=0.5;exitY=1;exitDx=0;exitDy=0;entryX=1;entryY=0.5;entryDx=0;entryDy=0;" edge="1" parent="1" source="7THwGTHfOE4JQq3ZWJoE-3" target="7THwGTHfOE4JQq3ZWJoE-5">
          <mxGeometry relative="1" as="geometry" />
        </mxCell>
        <mxCell id="7THwGTHfOE4JQq3ZWJoE-16" style="edgeStyle=orthogonalEdgeStyle;rounded=0;orthogonalLoop=1;jettySize=auto;html=1;exitX=1;exitY=0.5;exitDx=0;exitDy=0;entryX=0.5;entryY=1;entryDx=0;entryDy=0;" edge="1" parent="1" source="7THwGTHfOE4JQq3ZWJoE-3" target="7THwGTHfOE4JQq3ZWJoE-2">
          <mxGeometry relative="1" as="geometry" />
        </mxCell>
        <mxCell id="7THwGTHfOE4JQq3ZWJoE-3" value="Books" style="html=1;whiteSpace=wrap;" vertex="1" parent="1">
          <mxGeometry x="640" y="-44" width="110" height="50" as="geometry" />
        </mxCell>
        <mxCell id="7THwGTHfOE4JQq3ZWJoE-10" style="edgeStyle=orthogonalEdgeStyle;rounded=0;orthogonalLoop=1;jettySize=auto;html=1;exitX=0.25;exitY=1;exitDx=0;exitDy=0;" edge="1" parent="1" source="7THwGTHfOE4JQq3ZWJoE-4" target="7THwGTHfOE4JQq3ZWJoE-2">
          <mxGeometry relative="1" as="geometry" />
        </mxCell>
        <mxCell id="7THwGTHfOE4JQq3ZWJoE-4" value="Users" style="html=1;whiteSpace=wrap;" vertex="1" parent="1">
          <mxGeometry x="290" y="-40" width="110" height="50" as="geometry" />
        </mxCell>
        <mxCell id="7THwGTHfOE4JQq3ZWJoE-5" value="Reviews" style="html=1;whiteSpace=wrap;" vertex="1" parent="1">
          <mxGeometry x="490" y="40" width="110" height="50" as="geometry" />
        </mxCell>
        <mxCell id="7THwGTHfOE4JQq3ZWJoE-7" style="edgeStyle=orthogonalEdgeStyle;rounded=0;orthogonalLoop=1;jettySize=auto;html=1;exitX=1;exitY=0.5;exitDx=0;exitDy=0;entryX=0.5;entryY=0;entryDx=0;entryDy=0;" edge="1" parent="1" source="7THwGTHfOE4JQq3ZWJoE-4" target="7THwGTHfOE4JQq3ZWJoE-5">
          <mxGeometry relative="1" as="geometry" />
        </mxCell>
        <mxCell id="7THwGTHfOE4JQq3ZWJoE-8" value="1" style="text;html=1;align=center;verticalAlign=middle;resizable=0;points=[];autosize=1;strokeColor=none;fillColor=none;" vertex="1" parent="1">
          <mxGeometry x="400" y="-44" width="30" height="30" as="geometry" />
        </mxCell>
        <mxCell id="7THwGTHfOE4JQq3ZWJoE-9" value="N" style="text;html=1;align=center;verticalAlign=middle;resizable=0;points=[];autosize=1;strokeColor=none;fillColor=none;" vertex="1" parent="1">
          <mxGeometry x="546" y="10" width="30" height="30" as="geometry" />
        </mxCell>
        <mxCell id="7THwGTHfOE4JQq3ZWJoE-11" value="1" style="text;html=1;align=center;verticalAlign=middle;resizable=0;points=[];autosize=1;strokeColor=none;fillColor=none;" vertex="1" parent="1">
          <mxGeometry x="318" y="10" width="30" height="30" as="geometry" />
        </mxCell>
        <mxCell id="7THwGTHfOE4JQq3ZWJoE-12" value="N" style="text;html=1;align=center;verticalAlign=middle;resizable=0;points=[];autosize=1;strokeColor=none;fillColor=none;" vertex="1" parent="1">
          <mxGeometry x="266" y="98" width="30" height="30" as="geometry" />
        </mxCell>
        <mxCell id="7THwGTHfOE4JQq3ZWJoE-14" value="1" style="text;html=1;align=center;verticalAlign=middle;resizable=0;points=[];autosize=1;strokeColor=none;fillColor=none;" vertex="1" parent="1">
          <mxGeometry x="665" y="7" width="30" height="30" as="geometry" />
        </mxCell>
        <mxCell id="7THwGTHfOE4JQq3ZWJoE-15" value="N" style="text;html=1;align=center;verticalAlign=middle;resizable=0;points=[];autosize=1;strokeColor=none;fillColor=none;" vertex="1" parent="1">
          <mxGeometry x="601" y="34" width="30" height="30" as="geometry" />
        </mxCell>
        <mxCell id="7THwGTHfOE4JQq3ZWJoE-17" value="1" style="text;html=1;align=center;verticalAlign=middle;resizable=0;points=[];autosize=1;strokeColor=none;fillColor=none;" vertex="1" parent="1">
          <mxGeometry x="750" y="-48" width="30" height="30" as="geometry" />
        </mxCell>
        <mxCell id="7THwGTHfOE4JQq3ZWJoE-18" value="N" style="text;html=1;align=center;verticalAlign=middle;resizable=0;points=[];autosize=1;strokeColor=none;fillColor=none;" vertex="1" parent="1">
          <mxGeometry x="234" y="181" width="30" height="30" as="geometry" />
        </mxCell>
        <mxCell id="7THwGTHfOE4JQq3ZWJoE-20" value="1" style="text;html=1;align=center;verticalAlign=middle;resizable=0;points=[];autosize=1;strokeColor=none;fillColor=none;" vertex="1" parent="1">
          <mxGeometry x="601" y="-112" width="30" height="30" as="geometry" />
        </mxCell>
        <mxCell id="7THwGTHfOE4JQq3ZWJoE-21" value="N" style="text;html=1;align=center;verticalAlign=middle;resizable=0;points=[];autosize=1;strokeColor=none;fillColor=none;" vertex="1" parent="1">
          <mxGeometry x="664" y="-73" width="30" height="30" as="geometry" />
        </mxCell>
      </root>
    </mxGraphModel>
  </diagram>
</mxfile>
